<svg width="14" height="19" viewBox="0 0 14 19" fill="none" xmlns="http://www.w3.org/2000/svg">
    <path d="M1.72467 18.2247C1.30691 18.2247 0.949293 18.0537 0.651802 17.7117C0.354312 17.3696 0.205566 16.9584 0.205566 16.4781V4.25207C0.205566 3.77176 0.354312 3.36059 0.651802 3.01855C0.949293 2.67651 1.30691 2.50549 1.72467 2.50549H4.91478C5.07935 1.98152 5.35469 1.55943 5.74079 1.23922C6.1269 0.919014 6.56047 0.758911 7.04152 0.758911C7.52257 0.758911 7.95615 0.919014 8.34225 1.23922C8.72836 1.55943 9.00369 1.98152 9.16826 2.50549H12.3584C12.7761 2.50549 13.1338 2.67651 13.4312 3.01855C13.7287 3.36059 13.8775 3.77176 13.8775 4.25207V16.4781C13.8775 16.9584 13.7287 17.3696 13.4312 17.7117C13.1338 18.0537 12.7761 18.2247 12.3584 18.2247H1.72467ZM1.72467 16.4781H12.3584V4.25207H1.72467V16.4781ZM3.24377 14.7316H8.56062V12.985H3.24377V14.7316ZM3.24377 11.2384H10.8393V9.49181H3.24377V11.2384ZM3.24377 7.74523H10.8393V5.99865H3.24377V7.74523ZM7.04152 3.5971C7.20609 3.5971 7.34218 3.53525 7.44978 3.41153C7.55738 3.28781 7.61119 3.13135 7.61119 2.94214C7.61119 2.75292 7.55738 2.59646 7.44978 2.47274C7.34218 2.34903 7.20609 2.28717 7.04152 2.28717C6.87695 2.28717 6.74087 2.34903 6.63326 2.47274C6.52566 2.59646 6.47186 2.75292 6.47186 2.94214C6.47186 3.13135 6.52566 3.28781 6.63326 3.41153C6.74087 3.53525 6.87695 3.5971 7.04152 3.5971Z" fill="white"/>
</svg>
