<svg width="21" height="25" viewBox="0 0 21 25" xmlns="http://www.w3.org/2000/svg">
    <path d="M2.625 24.8153C2.00625 24.8153 1.47656 24.5742 1.03594 24.0919C0.595313 23.6097 0.375 23.03 0.375 22.3528V5.11545C0.375 4.43827 0.595313 3.85856 1.03594 3.37632C1.47656 2.89409 2.00625 2.65297 2.625 2.65297H7.35C7.59375 1.91423 8.00156 1.31913 8.57344 0.867673C9.14531 0.416218 9.7875 0.190491 10.5 0.190491C11.2125 0.190491 11.8547 0.416218 12.4266 0.867673C12.9984 1.31913 13.4062 1.91423 13.65 2.65297H18.375C18.9937 2.65297 19.5234 2.89409 19.9641 3.37632C20.4047 3.85856 20.625 4.43827 20.625 5.11545V22.3528C20.625 23.03 20.4047 23.6097 19.9641 24.0919C19.5234 24.5742 18.9937 24.8153 18.375 24.8153H2.625ZM2.625 22.3528H18.375V5.11545H2.625V22.3528ZM10.5 4.19202C10.7437 4.19202 10.9453 4.10481 11.1047 3.93038C11.2641 3.75596 11.3438 3.53536 11.3438 3.26859C11.3438 3.00182 11.2641 2.78123 11.1047 2.6068C10.9453 2.43237 10.7437 2.34516 10.5 2.34516C10.2563 2.34516 10.0547 2.43237 9.89531 2.6068C9.73594 2.78123 9.65625 3.00182 9.65625 3.26859C9.65625 3.53536 9.73594 3.75596 9.89531 3.93038C10.0547 4.10481 10.2563 4.19202 10.5 4.19202ZM5.4375 19.8903H6.7875C6.9375 19.8903 7.08281 19.8544 7.22344 19.7826C7.36406 19.7108 7.48125 19.6236 7.575 19.521L13.9875 12.5645L11.5687 9.91729L5.2125 16.8738C5.1 16.9969 5.01563 17.1354 4.95938 17.2893C4.90313 17.4432 4.875 17.6023 4.875 17.7664V19.2747C4.875 19.4389 4.93125 19.5825 5.04375 19.7056C5.15625 19.8288 5.2875 19.8903 5.4375 19.8903ZM14.775 11.7026L15.9563 10.3482C16.0688 10.2251 16.125 10.0815 16.125 9.91729C16.125 9.75312 16.0688 9.60948 15.9563 9.48635L14.3812 7.76262C14.2688 7.63949 14.1375 7.57793 13.9875 7.57793C13.8375 7.57793 13.7063 7.63949 13.5938 7.76262L12.3563 9.05542L14.775 11.7026Z" fill="white"/>
</svg>
